<svg width="24" height="24" viewBox="0 0 24 24" fill="none" xmlns="http://www.w3.org/2000/svg">
<g clip-path="url(#clip0_186:984)">
<path d="M19.355 9.365H4.85498V3.25C4.8563 2.65367 5.09378 2.08214 5.51545 1.66047C5.93712 1.2388 6.50865 1.00132 7.10498 1H17.105C17.7013 1.00132 18.2728 1.2388 18.6945 1.66047C19.1162 2.08214 19.3537 2.65367 19.355 3.25V9.365ZM6.35498 7.865H17.855V3.25C17.855 3.05109 17.776 2.86032 17.6353 2.71967C17.4947 2.57902 17.3039 2.5 17.105 2.5H7.10498C6.90607 2.5 6.7153 2.57902 6.57465 2.71967C6.434 2.86032 6.35498 3.05109 6.35498 3.25V7.865Z" fill="#252563"/>
<path d="M19.7351 23.5H4.50011C3.93832 23.5021 3.39623 23.2931 2.98133 22.9143C2.56643 22.5355 2.30901 22.0146 2.26011 21.455L1.00011 10.33C0.96846 10.0166 1.00324 9.70012 1.10219 9.40112C1.20114 9.10213 1.36202 8.82736 1.57434 8.59474C1.78667 8.36213 2.04566 8.17691 2.33441 8.05116C2.62316 7.92541 2.93518 7.86197 3.25011 7.86497H20.9651C21.2773 7.86482 21.5861 7.92965 21.8719 8.05533C22.1577 8.18101 22.4142 8.36478 22.6251 8.59497C22.8353 8.8271 22.9953 9.10012 23.0951 9.39695C23.1949 9.69377 23.2324 10.008 23.2051 10.32L22.0001 21.47C21.9485 22.0317 21.6863 22.5532 21.2662 22.9297C20.8461 23.3062 20.2991 23.5099 19.7351 23.5ZM3.25011 9.36497C3.14549 9.36395 3.04186 9.38529 2.94615 9.42754C2.85044 9.46979 2.76485 9.53198 2.69511 9.60997C2.62471 9.68617 2.571 9.77623 2.53742 9.87438C2.50385 9.97253 2.49114 10.0766 2.50011 10.18L3.73011 21.305C3.74298 21.4982 3.83056 21.6788 3.97429 21.8085C4.11802 21.9382 4.30661 22.0069 4.50011 22H19.7351C19.925 22.0046 20.1096 21.937 20.2516 21.8108C20.3936 21.6845 20.4824 21.5091 20.5001 21.32L21.7251 10.17C21.7327 10.0674 21.719 9.96432 21.685 9.86722C21.651 9.77012 21.5975 9.68105 21.5276 9.60554C21.4577 9.53004 21.373 9.46972 21.2789 9.42833C21.1847 9.38695 21.083 9.36538 20.9801 9.36497H3.25011Z" fill="#252563"/>
<path d="M12.105 13.75C12.9334 13.75 13.605 13.0784 13.605 12.25C13.605 11.4216 12.9334 10.75 12.105 10.75C11.2766 10.75 10.605 11.4216 10.605 12.25C10.605 13.0784 11.2766 13.75 12.105 13.75Z" fill="#252563"/>
</g>
<defs>
<clipPath id="clip0_186:984">
<rect width="22.215" height="22.5" fill="white" transform="translate(1 1)"/>
</clipPath>
</defs>
</svg>
