<svg xmlns="http://www.w3.org/2000/svg" viewBox="0 0 56.21 26.46"><defs><style>.cls-1{fill:#fff;}.cls-2{fill:#6161c9;}</style></defs><g id="레이어_2" data-name="레이어 2"><g id="레이어_1-2" data-name="레이어 1"><path class="cls-1" d="M6.06,20.05a6.87,6.87,0,0,1-2.87-.57,4.58,4.58,0,0,1-2-1.66A4.39,4.39,0,0,1,.5,15.35,4.69,4.69,0,0,1,1,13.2a4,4,0,0,1,1.37-1.55,3.44,3.44,0,0,1,1.94-.59A2.78,2.78,0,0,1,6,11.58a2.28,2.28,0,0,1,.92,1.47l.11.59h-.6a2.39,2.39,0,0,0-1.66.54,1.76,1.76,0,0,0-.58,1.41,1.74,1.74,0,0,0,.48,1.3,1.71,1.71,0,0,0,1.3.48,2.28,2.28,0,0,0,1.74-.7,2.41,2.41,0,0,0,.69-1.8A3.47,3.47,0,0,0,7.87,13a19,19,0,0,0-1.82-2.38A20.35,20.35,0,0,1,4,8a4.9,4.9,0,0,1-.73-2.6,4.35,4.35,0,0,1,.78-2.53A5.37,5.37,0,0,1,6.21,1.12a7,7,0,0,1,3-.62,5.38,5.38,0,0,1,3.42,1A3.43,3.43,0,0,1,14,4.36a3,3,0,0,1-.62,1.95,2.13,2.13,0,0,1-1.71.81,2.24,2.24,0,0,1-1.86-1l-.3-.4.4-.3a1.87,1.87,0,0,0,.57-.7,2.19,2.19,0,0,0,.21-.94A1.16,1.16,0,0,0,10.34,3a1.19,1.19,0,0,0-.89-.31,1.51,1.51,0,0,0-1.2.52,2,2,0,0,0-.49,1.41,2.71,2.71,0,0,0,.47,1.51A20.27,20.27,0,0,0,9.91,8.15c.64.69,1.17,1.3,1.57,1.8a8.41,8.41,0,0,1,1.08,1.83,5.87,5.87,0,0,1,.46,2.3,5.4,5.4,0,0,1-.94,3.07,6.28,6.28,0,0,1-2.52,2.13A8,8,0,0,1,6.06,20.05Z"/><path class="cls-2" d="M9.18,1a4.88,4.88,0,0,1,3.11.91,3,3,0,0,1,1.17,2.45A2.48,2.48,0,0,1,13,6a1.59,1.59,0,0,1-1.32.63,1.72,1.72,0,0,1-1.46-.75A2.36,2.36,0,0,0,10.89,5a2.69,2.69,0,0,0,.26-1.15,1.65,1.65,0,0,0-.45-1.22,1.68,1.68,0,0,0-1.25-.46,2,2,0,0,0-1.57.69,2.49,2.49,0,0,0-.62,1.74,3.13,3.13,0,0,0,.56,1.78A18.59,18.59,0,0,0,9.54,8.49c.64.69,1.16,1.28,1.55,1.77a7.79,7.79,0,0,1,1,1.72,5.25,5.25,0,0,1,.42,2.1,4.8,4.8,0,0,1-.85,2.78,5.85,5.85,0,0,1-2.33,2,7.38,7.38,0,0,1-3.28.72A6.22,6.22,0,0,1,3.4,19a4.13,4.13,0,0,1-1.78-1.47A4,4,0,0,1,1,15.35a4.24,4.24,0,0,1,.44-1.92,3.72,3.72,0,0,1,1.2-1.37,3,3,0,0,1,1.67-.5A2.36,2.36,0,0,1,5.73,12a1.85,1.85,0,0,1,.72,1.16,2.88,2.88,0,0,0-2,.66,2.27,2.27,0,0,0-.75,1.79,2.24,2.24,0,0,0,.63,1.66A2.23,2.23,0,0,0,6,17.87,2.79,2.79,0,0,0,8.09,17a3,3,0,0,0,.83-2.15,4,4,0,0,0-.62-2.13,19.3,19.3,0,0,0-1.88-2.45A20.76,20.76,0,0,1,4.47,7.73a4.36,4.36,0,0,1-.66-2.34A3.83,3.83,0,0,1,4.5,3.15,4.74,4.74,0,0,1,6.42,1.58,6.34,6.34,0,0,1,9.18,1m0-1A7.48,7.48,0,0,0,6,.67,5.84,5.84,0,0,0,3.68,2.58a4.82,4.82,0,0,0-.87,2.81,5.34,5.34,0,0,0,.81,2.87A21.06,21.06,0,0,0,5.5,10.75a3.5,3.5,0,0,0-1.19-.19,4,4,0,0,0-2.22.67A4.59,4.59,0,0,0,.55,13,5.2,5.2,0,0,0,0,15.35,5,5,0,0,0,.79,18.1,5.13,5.13,0,0,0,3,19.93a7.4,7.4,0,0,0,3.08.62,8.35,8.35,0,0,0,3.72-.82,6.79,6.79,0,0,0,2.71-2.3,5.86,5.86,0,0,0,1-3.35,6.31,6.31,0,0,0-.5-2.5,9.43,9.43,0,0,0-1.14-1.94c-.41-.51-1-1.13-1.6-1.83a19.05,19.05,0,0,1-1.63-2,2.16,2.16,0,0,1-.39-1.23A1.55,1.55,0,0,1,8.62,3.5a1,1,0,0,1,.83-.35.67.67,0,0,1,.54.17.65.65,0,0,1,.16.51,1.64,1.64,0,0,1-.16.72,1.44,1.44,0,0,1-.41.52l-.81.59.59.81a2.75,2.75,0,0,0,2.27,1.15,2.63,2.63,0,0,0,2.1-1,3.52,3.52,0,0,0,.73-2.26,4,4,0,0,0-1.55-3.23A5.88,5.88,0,0,0,9.18,0ZM6,16.87a1.26,1.26,0,0,1-1-.33,1.22,1.22,0,0,1-.33-.95,1.25,1.25,0,0,1,.41-1,1.94,1.94,0,0,1,1.33-.41H7.66l-.15-.77a2.92,2.92,0,0,1,.41,1.5,2,2,0,0,1-.54,1.45A1.81,1.81,0,0,1,6,16.87Z"/><path class="cls-1" d="M32.51,19a6.73,6.73,0,0,1-3.19.79,4.38,4.38,0,0,1-3.1-1.05,2.87,2.87,0,0,1-.46-.57,6.94,6.94,0,0,1-4.46,1.62,4.38,4.38,0,0,1-3.1-1.05l0,0-.1.08a5.47,5.47,0,0,1-3,1,3,3,0,0,1-2.22-.87A3.45,3.45,0,0,1,12,16.38a9.09,9.09,0,0,1,.2-1.65L14.82,2.35l4.6-.62L16.51,15.38a2.51,2.51,0,0,0-.08.67c0,.21,0,.29.06.31s.09.08.42.08a.91.91,0,0,0,.23,0,5.18,5.18,0,0,1-.08-1,12.59,12.59,0,0,1,.67-3.8A9.06,9.06,0,0,1,20,8,5.57,5.57,0,0,1,24,6.4c1.92,0,3,.9,3.13,2.52A10.06,10.06,0,0,1,28,8a5.58,5.58,0,0,1,4.08-1.6,2.91,2.91,0,0,1,2.83,1.38l.43-2H39.8L39.54,7a4.75,4.75,0,0,1,2.07-.45,3.19,3.19,0,0,1,2.51,1.06,3.14,3.14,0,0,1,.61,1.08l.43-2h4.48l-1.86,8.76a2.14,2.14,0,0,0-.06.5c0,.56.15.56.22.56a1,1,0,0,0,.77-.39,3.57,3.57,0,0,0,.67-1.37l1.71-8.06h4.5L52.54,21.14a5.59,5.59,0,0,1-1.89,3.5,4.94,4.94,0,0,1-3,1,3.49,3.49,0,0,1-2.31-.85,2.84,2.84,0,0,1-1-2.24,3.22,3.22,0,0,1,.63-2,4.12,4.12,0,0,1,.8-.76,2.93,2.93,0,0,1-1.69-.84,3,3,0,0,1-.78-1.66,7.55,7.55,0,0,1-.84,1,5.14,5.14,0,0,1-3.84,1.5,3.56,3.56,0,0,1-1.74-.38l-1.12,5.29-4.7,1.12ZM48.16,20.5a4.45,4.45,0,0,0-1,.59,1.33,1.33,0,0,0-.51,1.1.31.31,0,0,0,.11.17.55.55,0,0,0,.35.12.62.62,0,0,0,.43-.27A2.67,2.67,0,0,0,48.05,21ZM29.65,14.73c0,.23,0,.4,0,.5,0,.88.18,1.17.26,1.25a1.46,1.46,0,0,0,1,.27,3.53,3.53,0,0,0,1.94-.52c.12-.07.23-.16.35-.24l.72-3.43a6.08,6.08,0,0,1-1.75,1.37A7,7,0,0,1,29.65,14.73Zm-8,0c0,.23,0,.4,0,.5,0,.88.19,1.17.27,1.25a1.42,1.42,0,0,0,1,.27,3.57,3.57,0,0,0,1.95-.52L25.1,16c0-.18,0-.37,0-.56a10.92,10.92,0,0,1,.28-2.39,6.19,6.19,0,0,1-1.25.87A7.08,7.08,0,0,1,21.63,14.73ZM37.5,16.56c0,.06.15.12.39.12a1.79,1.79,0,0,0,1.5-.87,6.78,6.78,0,0,0,1-2.41,12.14,12.14,0,0,0,.34-2.68c0-1.49-.51-1.49-.7-1.49a1,1,0,0,0-.59.22,2.32,2.32,0,0,0-.6.64ZM24.23,8.68c-.36,0-.81.44-1.25,1.25a10.4,10.4,0,0,0-1,2.56,2.88,2.88,0,0,0,.75-.4,3.89,3.89,0,0,0,1.15-1.3,3.26,3.26,0,0,0,.43-1.63c0-.39-.08-.49-.08-.49Zm8,0c-.37,0-.81.44-1.26,1.25a10.8,10.8,0,0,0-1,2.56,3,3,0,0,0,.75-.4,4,4,0,0,0,1.15-1.3,3.26,3.26,0,0,0,.43-1.63c0-.39-.09-.49-.09-.49Z"/><path class="cls-2" d="M18.78,2.32,16,15.28a3.19,3.19,0,0,0-.09.77.84.84,0,0,0,.23.68,1.08,1.08,0,0,0,.75.21,1.6,1.6,0,0,0,.79-.22,6.09,6.09,0,0,1-.14-1.27,11.94,11.94,0,0,1,.65-3.65,8.32,8.32,0,0,1,2.11-3.44A5.07,5.07,0,0,1,24,6.9q2.64,0,2.64,2.31a4.32,4.32,0,0,1-.77,2.47,5.59,5.59,0,0,1-2,1.81,6.47,6.47,0,0,1-2.71.78c0,.48-.05.8-.05,1a2.33,2.33,0,0,0,.41,1.6,1.77,1.77,0,0,0,1.32.42,4,4,0,0,0,2.22-.6q.27-.18.57-.42a6.39,6.39,0,0,1-.05-.78,11.9,11.9,0,0,1,.64-3.65,8.45,8.45,0,0,1,2.12-3.44A5,5,0,0,1,32.06,6.9q2.64,0,2.64,2.31a4.32,4.32,0,0,1-.77,2.47,5.59,5.59,0,0,1-2,1.81,6.47,6.47,0,0,1-2.71.78c0,.48-.05.8-.05,1a2.28,2.28,0,0,0,.41,1.6,1.77,1.77,0,0,0,1.32.42,4,4,0,0,0,2.22-.6l.52-.38,2.13-10h3.45L38.8,8a4.17,4.17,0,0,1,2.81-1,2.71,2.71,0,0,1,2.13.89,4.3,4.3,0,0,1,.8,2.9,13.74,13.74,0,0,1-.13,1.8l1.16-5.47H49l-1.73,8.16a2.9,2.9,0,0,0-.07.6c0,.7.24,1.06.72,1.06a1.49,1.49,0,0,0,1.16-.57,4.08,4.08,0,0,0,.76-1.55l1.64-7.7H55L52.05,21a5,5,0,0,1-1.7,3.19,4.42,4.42,0,0,1-2.67.89,2.94,2.94,0,0,1-2-.73,2.34,2.34,0,0,1-.85-1.86,2.67,2.67,0,0,1,.53-1.73,3.6,3.6,0,0,1,1.36-1.06A20.18,20.18,0,0,1,49,18.93l.24-1.06a3.77,3.77,0,0,1-2.93,1.39,2.49,2.49,0,0,1-1.86-.72,3,3,0,0,1-.71-2.16,8.27,8.27,0,0,1,.2-1.56l0-.16a7.68,7.68,0,0,1-1.86,3.25,4.65,4.65,0,0,1-3.48,1.35,2.16,2.16,0,0,1-2-.86l-1.25,5.86-3.62.86,1.53-7.21a6.41,6.41,0,0,1-3.93,1.35,3.87,3.87,0,0,1-2.76-.92,2.75,2.75,0,0,1-.65-1,6.56,6.56,0,0,1-4.61,1.91,3.87,3.87,0,0,1-2.76-.92,2.69,2.69,0,0,1-.3-.37,4.8,4.8,0,0,1-.44.37,4.94,4.94,0,0,1-2.76.92,2.49,2.49,0,0,1-1.86-.72,3,3,0,0,1-.71-2.16,9,9,0,0,1,.19-1.56l2.57-12,3.55-.48m10.59,10.8a3.19,3.19,0,0,0,1.69-.62A4.48,4.48,0,0,0,32.36,11a3.87,3.87,0,0,0,.49-1.87c0-.66-.2-1-.6-1-.58,0-1.14.5-1.69,1.51a11.3,11.3,0,0,0-1.19,3.43m-8,0A3.16,3.16,0,0,0,23,12.5,4.48,4.48,0,0,0,24.34,11a3.76,3.76,0,0,0,.49-1.87c0-.66-.2-1-.6-1-.57,0-1.14.5-1.69,1.51a11.58,11.58,0,0,0-1.19,3.43m16.54,4.06A2.26,2.26,0,0,0,39.8,16.1a7.38,7.38,0,0,0,1.1-2.58,12.6,12.6,0,0,0,.35-2.8c0-1.33-.4-2-1.2-2a1.52,1.52,0,0,0-.88.31,3.12,3.12,0,0,0-.78.86L37,16.62a.85.85,0,0,0,.91.56M47.13,23a1,1,0,0,0,.81-.44,3.19,3.19,0,0,0,.6-1.43l.29-1.41a6.22,6.22,0,0,0-2,1,1.86,1.86,0,0,0-.69,1.49.7.7,0,0,0,.29.54,1,1,0,0,0,.67.25M20.06,1.14l-1.41.19-3.55.48-.7.09-.15.69-2.56,12a8.81,8.81,0,0,0-.22,1.76,4,4,0,0,0,1,2.87,3.47,3.47,0,0,0,2.57,1,5.87,5.87,0,0,0,3.1-1,5,5,0,0,0,3.16,1,7.37,7.37,0,0,0,4.36-1.41l.22.22a4.84,4.84,0,0,0,3.44,1.19,7.26,7.26,0,0,0,2.5-.43l-1.08,5.08-.33,1.55L32,26.09l3.63-.86.61-.15.13-.62.94-4.39a4.48,4.48,0,0,0,1.37.19,5.63,5.63,0,0,0,4.2-1.65l.28-.3a3.17,3.17,0,0,0,.63.94,3.45,3.45,0,0,0,1,.71l-.18.22a3.73,3.73,0,0,0-.74,2.35,3.35,3.35,0,0,0,1.2,2.62,3.94,3.94,0,0,0,2.63,1A5.41,5.41,0,0,0,51,25,6,6,0,0,0,53,21.24L56,7.33l.26-1.21H50.68l-.16.79-1.63,7.67a3.18,3.18,0,0,1-.56,1.14.38.38,0,0,1-.11.11,1.54,1.54,0,0,1,.05-.31L50,7.33l.26-1.21h-5.5l-.17.79-.07.34,0,0A3.68,3.68,0,0,0,41.61,6a5.69,5.69,0,0,0-1.39.17l.2-.94h-5.5L34.75,6l-.14.64a4,4,0,0,0-2.55-.76,6.06,6.06,0,0,0-4.43,1.75l-.18.18C27,6.59,25.79,5.9,24,5.9a6,6,0,0,0-4.42,1.75,8.71,8.71,0,0,0-1.28,1.57l1.42-6.69.3-1.39ZM30.9,11.32a10.08,10.08,0,0,1,.53-1.15,5.56,5.56,0,0,1,.39-.61,2.84,2.84,0,0,1-.34,1,3.18,3.18,0,0,1-.58.77Zm-8,0a8.61,8.61,0,0,1,.53-1.15,4.47,4.47,0,0,1,.38-.61,3,3,0,0,1-.33,1,3.79,3.79,0,0,1-.58.77Zm16.44-1a1.72,1.72,0,0,1,.42-.43.53.53,0,0,1,.3-.13h.05a2.23,2.23,0,0,1,.15,1,11.71,11.71,0,0,1-.32,2.57,6.68,6.68,0,0,1-1,2.23,1.35,1.35,0,0,1-.89.64l1.24-5.87Zm-9.2,4.87a7.52,7.52,0,0,0,2.23-.79,7,7,0,0,0,.71-.43L32.7,15.7l-.17.11a3,3,0,0,1-1.67.44c-.48,0-.6-.11-.61-.12h0a2.26,2.26,0,0,1-.12-.9v-.07Zm-8,0a7.58,7.58,0,0,0,2.24-.79l.3-.17a10.83,10.83,0,0,0-.07,1.25v.31l-.06.05a3.07,3.07,0,0,1-1.68.44c-.47,0-.6-.11-.6-.12h0a1.89,1.89,0,0,1-.13-.9v-.07Zm25.12,6.67a.81.81,0,0,1,.1-.18,1.3,1.3,0,0,1-.1.18Z"/></g></g></svg>