<svg width="59" height="25" viewBox="0 0 59 25" fill="none" xmlns="http://www.w3.org/2000/svg">
<path d="M5.24328 19.432C4.23528 19.432 3.34728 19.256 2.57928 18.904C1.81128 18.552 1.21928 18.064 0.803281 17.44C0.387281 16.8 0.179281 16.064 0.179281 15.232C0.179281 14.528 0.323281 13.888 0.611281 13.312C0.915281 12.736 1.31528 12.28 1.81128 11.944C2.32328 11.608 2.88328 11.44 3.49128 11.44C4.05128 11.44 4.52328 11.584 4.90728 11.872C5.29128 12.144 5.53128 12.528 5.62728 13.024C4.79528 13.024 4.13128 13.248 3.63528 13.696C3.13928 14.128 2.89128 14.72 2.89128 15.472C2.89128 16.16 3.09928 16.712 3.51528 17.128C3.93128 17.544 4.48328 17.752 5.17128 17.752C6.01928 17.752 6.71528 17.472 7.25928 16.912C7.81928 16.336 8.09928 15.616 8.09928 14.752C8.09928 14 7.89128 13.288 7.47528 12.616C7.05928 11.944 6.43528 11.128 5.60328 10.168C4.73928 9.176 4.08328 8.328 3.63528 7.624C3.20328 6.904 2.98728 6.12 2.98728 5.272C2.98728 4.44 3.21928 3.696 3.68328 3.04C4.14728 2.368 4.78728 1.84 5.60328 1.456C6.41928 1.072 7.33928 0.879999 8.36328 0.879999C9.65928 0.879999 10.6913 1.184 11.4593 1.792C12.2433 2.4 12.6353 3.216 12.6353 4.24C12.6353 4.912 12.4673 5.456 12.1313 5.872C11.7953 6.288 11.3553 6.496 10.8113 6.496C10.2033 6.496 9.71528 6.248 9.34728 5.752C9.65128 5.528 9.89128 5.232 10.0673 4.864C10.2433 4.496 10.3313 4.112 10.3313 3.712C10.3313 3.2 10.1793 2.792 9.87528 2.488C9.57128 2.184 9.15528 2.032 8.62728 2.032C7.98728 2.032 7.45928 2.264 7.04328 2.728C6.64328 3.176 6.44328 3.752 6.44328 4.456C6.44328 5.096 6.62728 5.696 6.99528 6.256C7.36328 6.8 7.93928 7.504 8.72328 8.368C9.36328 9.056 9.87528 9.648 10.2593 10.144C10.6593 10.64 10.9953 11.216 11.2673 11.872C11.5553 12.512 11.6993 13.208 11.6993 13.96C11.6993 14.984 11.4113 15.912 10.8353 16.744C10.2753 17.576 9.49928 18.232 8.50728 18.712C7.53128 19.192 6.44328 19.432 5.24328 19.432ZM15.1268 19.144C14.3588 19.144 13.7348 18.904 13.2548 18.424C12.7908 17.944 12.5588 17.224 12.5588 16.264C12.5588 15.864 12.6228 15.344 12.7508 14.704L15.3188 2.68L18.8708 2.2L16.1108 15.16C16.0468 15.4 16.0148 15.656 16.0148 15.928C16.0148 16.248 16.0868 16.48 16.2308 16.624C16.3908 16.752 16.6468 16.816 16.9988 16.816C17.4628 16.816 17.8948 16.624 18.2948 16.24C18.6948 15.84 18.9828 15.328 19.1588 14.704H20.1668C19.5748 16.432 18.8148 17.608 17.8868 18.232C16.9588 18.84 16.0388 19.144 15.1268 19.144ZM22.2812 19.144C21.0972 19.144 20.1772 18.84 19.5212 18.232C18.8652 17.608 18.5372 16.64 18.5372 15.328C18.5372 14.224 18.7532 13.008 19.1852 11.68C19.6172 10.352 20.3212 9.208 21.2972 8.248C22.2732 7.272 23.5132 6.784 25.0172 6.784C26.7772 6.784 27.6572 7.552 27.6572 9.088C27.6572 9.984 27.4012 10.808 26.8892 11.56C26.3772 12.312 25.6972 12.92 24.8492 13.384C24.0012 13.832 23.0972 14.088 22.1372 14.152C22.1052 14.632 22.0892 14.952 22.0892 15.112C22.0892 15.896 22.2252 16.432 22.4972 16.72C22.7692 16.992 23.2092 17.128 23.8172 17.128C24.6812 17.128 25.4172 16.928 26.0252 16.528C26.6492 16.128 27.3292 15.52 28.0652 14.704H28.8812C27.1052 17.664 24.9052 19.144 22.2812 19.144ZM22.3292 13C22.9212 12.968 23.4812 12.76 24.0092 12.376C24.5532 11.992 24.9852 11.504 25.3052 10.912C25.6412 10.32 25.8092 9.696 25.8092 9.04C25.8092 8.384 25.6092 8.056 25.2092 8.056C24.6332 8.056 24.0652 8.56 23.5052 9.568C22.9612 10.576 22.5692 11.72 22.3292 13ZM31.1922 19.144C30.0082 19.144 29.0882 18.84 28.4322 18.232C27.7762 17.608 27.4482 16.64 27.4482 15.328C27.4482 14.224 27.6642 13.008 28.0962 11.68C28.5282 10.352 29.2322 9.208 30.2082 8.248C31.1842 7.272 32.4242 6.784 33.9282 6.784C35.6882 6.784 36.5682 7.552 36.5682 9.088C36.5682 9.984 36.3122 10.808 35.8002 11.56C35.2882 12.312 34.6082 12.92 33.7602 13.384C32.9122 13.832 32.0082 14.088 31.0482 14.152C31.0162 14.632 31.0002 14.952 31.0002 15.112C31.0002 15.896 31.1362 16.432 31.4082 16.72C31.6802 16.992 32.1202 17.128 32.7282 17.128C33.5922 17.128 34.3282 16.928 34.9362 16.528C35.5602 16.128 36.2402 15.52 36.9762 14.704H37.7922C36.0162 17.664 33.8162 19.144 31.1922 19.144ZM31.2402 13C31.8322 12.968 32.3922 12.76 32.9202 12.376C33.4642 11.992 33.8962 11.504 34.2162 10.912C34.5522 10.32 34.7202 9.696 34.7202 9.04C34.7202 8.384 34.5202 8.056 34.1202 8.056C33.5442 8.056 32.9762 8.56 32.4162 9.568C31.8722 10.576 31.4802 11.72 31.2402 13ZM38.4951 6.112H41.9511L41.5671 7.912C42.3671 7.224 43.3031 6.88 44.3751 6.88C45.2711 6.88 45.9831 7.176 46.5111 7.768C47.0391 8.36 47.3031 9.328 47.3031 10.672C47.3031 11.936 47.1191 13.216 46.7511 14.512C46.3831 15.792 45.7591 16.888 44.8791 17.8C43.9991 18.696 42.8391 19.144 41.3991 19.144C40.3751 19.144 39.6951 18.856 39.3591 18.28L38.1111 24.136L34.4871 25L38.4951 6.112ZM40.6551 17.056C41.4231 17.056 42.0551 16.696 42.5511 15.976C43.0631 15.256 43.4311 14.4 43.6551 13.408C43.8951 12.4 44.0151 11.464 44.0151 10.6C44.0151 9.272 43.6151 8.608 42.8151 8.608C42.5271 8.608 42.2311 8.712 41.9271 8.92C41.6391 9.128 41.3831 9.416 41.1591 9.784L39.7431 16.504C39.8711 16.872 40.1751 17.056 40.6551 17.056ZM51.3417 25C50.5897 25 49.9257 24.752 49.3497 24.256C48.7897 23.776 48.5097 23.16 48.5097 22.408C48.5097 21.704 48.6857 21.128 49.0377 20.68C49.3897 20.232 49.8457 19.88 50.4057 19.624C50.9657 19.368 51.7177 19.096 52.6617 18.808L52.9017 17.752C52.0857 18.68 51.1097 19.144 49.9737 19.144C49.2057 19.144 48.5817 18.904 48.1017 18.424C47.6377 17.944 47.4057 17.224 47.4057 16.264C47.4057 15.864 47.4697 15.344 47.5977 14.704L49.2297 7H52.6857L50.9577 15.16C50.9097 15.352 50.8857 15.552 50.8857 15.76C50.8857 16.464 51.1257 16.816 51.6057 16.816C52.0537 16.816 52.4377 16.632 52.7577 16.264C53.0777 15.88 53.3337 15.36 53.5257 14.704L55.1577 7H58.6377L55.7097 20.92C55.3897 22.456 54.8217 23.52 54.0057 24.112C53.2057 24.704 52.3177 25 51.3417 25ZM50.7897 22.864C51.0777 22.864 51.3497 22.712 51.6057 22.408C51.8617 22.12 52.0617 21.648 52.2057 20.992L52.4937 19.576C51.6457 19.864 50.9897 20.2 50.5257 20.584C50.0617 20.968 49.8297 21.464 49.8297 22.072C49.8297 22.264 49.9257 22.44 50.1177 22.6C50.3097 22.776 50.5337 22.864 50.7897 22.864Z" fill="white"/>
<path d="M2.57928 18.904L2.16263 19.8131H2.16263L2.57928 18.904ZM0.803281 17.44L-0.035219 17.985L-0.028769 17.9947L0.803281 17.44ZM0.611281 13.312L-0.273103 12.8452L-0.278232 12.855L-0.283146 12.8648L0.611281 13.312ZM1.81128 11.944L1.26262 11.108L1.2565 11.112L1.25043 11.1161L1.81128 11.944ZM4.90728 11.872L4.30728 12.672L4.31816 12.6802L4.32926 12.688L4.90728 11.872ZM5.62728 13.024V14.024H6.83939L6.60906 12.834L5.62728 13.024ZM3.63528 13.696L4.29206 14.4501L4.29887 14.4442L4.30557 14.4381L3.63528 13.696ZM7.25928 16.912L6.54229 16.2149L6.542 16.2152L7.25928 16.912ZM7.47528 12.616L8.32555 12.0896L7.47528 12.616ZM5.60328 10.168L6.35897 9.51307L6.35736 9.51122L5.60328 10.168ZM3.63528 7.624L2.77779 8.13849L2.78456 8.14978L2.79162 8.16087L3.63528 7.624ZM3.68328 3.04L4.49975 3.6175L4.50618 3.60819L3.68328 3.04ZM5.60328 1.456L6.02908 2.36082L6.02908 2.36082L5.60328 1.456ZM11.4593 1.792L10.8385 2.57608L10.8465 2.58222L11.4593 1.792ZM12.1313 5.872L11.3533 5.24366L11.3533 5.24366L12.1313 5.872ZM9.34728 5.752L8.75408 4.94694L7.94637 5.5421L8.54418 6.34785L9.34728 5.752ZM10.0673 4.864L9.16515 4.43254L9.16515 4.43254L10.0673 4.864ZM7.04328 2.728L6.29871 2.06045L6.29734 2.06198L7.04328 2.728ZM6.99528 6.256L6.1595 6.80523L6.167 6.81631L6.99528 6.256ZM8.72328 8.368L7.98267 9.04004L7.99109 9.0491L8.72328 8.368ZM10.2593 10.144L9.46856 10.7562L9.47464 10.764L9.48087 10.7718L10.2593 10.144ZM11.2673 11.872L10.3435 12.255L10.3492 12.2688L10.3554 12.2824L11.2673 11.872ZM10.8353 16.744L10.013 16.1747L10.0057 16.1856L10.8353 16.744ZM8.50728 18.712L8.07171 17.8118L8.06596 17.8146L8.50728 18.712ZM5.24328 18.432C4.35171 18.432 3.61041 18.2766 2.99594 17.9949L2.16263 19.8131C3.08415 20.2354 4.11885 20.432 5.24328 20.432V18.432ZM2.99594 17.9949C2.37469 17.7102 1.93583 17.336 1.63533 16.8853L-0.028769 17.9947C0.502734 18.792 1.24787 19.3938 2.16263 19.8131L2.99594 17.9949ZM1.64172 16.895C1.34063 16.4318 1.17928 15.8887 1.17928 15.232H-0.820719C-0.820719 16.2393 -0.566063 17.1682 -0.0351623 17.985L1.64172 16.895ZM1.17928 15.232C1.17928 14.6685 1.29343 14.1838 1.50571 13.7592L-0.283146 12.8648C-0.646869 13.5922 -0.820719 14.3875 -0.820719 15.232H1.17928ZM1.49567 13.7788C1.72991 13.3349 2.02359 13.008 2.37213 12.7719L1.25043 11.1161C0.606969 11.552 0.100648 12.1371 -0.273103 12.8452L1.49567 13.7788ZM2.35994 12.78C2.7102 12.5502 3.07974 12.44 3.49128 12.44V10.44C2.68683 10.44 1.93636 10.6658 1.26262 11.108L2.35994 12.78ZM3.49128 12.44C3.87232 12.44 4.12409 12.5346 4.30728 12.672L5.50728 11.072C4.92247 10.6334 4.23024 10.44 3.49128 10.44V12.44ZM4.32926 12.688C4.48668 12.7995 4.59449 12.9505 4.6455 13.214L6.60906 12.834C6.46807 12.1055 6.09589 11.4885 5.4853 11.056L4.32926 12.688ZM5.62728 12.024C4.61078 12.024 3.68681 12.3019 2.965 12.9539L4.30557 14.4381C4.57576 14.1941 4.97978 14.024 5.62728 14.024V12.024ZM2.9785 12.9419C2.23197 13.5921 1.89128 14.4769 1.89128 15.472H3.89128C3.89128 14.9631 4.04659 14.6639 4.29206 14.4501L2.9785 12.9419ZM1.89128 15.472C1.89128 16.3767 2.17293 17.1999 2.80817 17.8351L4.22239 16.4209C4.02563 16.2241 3.89128 15.9433 3.89128 15.472H1.89128ZM2.80817 17.8351C3.44342 18.4704 4.26655 18.752 5.17128 18.752V16.752C4.70001 16.752 4.41914 16.6176 4.22239 16.4209L2.80817 17.8351ZM5.17128 18.752C6.26373 18.752 7.22702 18.3804 7.97656 17.6088L6.542 16.2152C6.20355 16.5636 5.77483 16.752 5.17128 16.752V18.752ZM7.97628 17.6091C8.7323 16.8315 9.09928 15.8547 9.09928 14.752H7.09928C7.09928 15.3773 6.90627 15.8405 6.54229 16.2149L7.97628 17.6091ZM9.09928 14.752C9.09928 13.8044 8.8342 12.9113 8.32555 12.0896L6.62502 13.1424C6.94836 13.6647 7.09928 14.1956 7.09928 14.752H9.09928ZM8.32555 12.0896C7.8699 11.3536 7.20763 10.4923 6.35897 9.51307L4.84759 10.8229C5.66293 11.7637 6.24866 12.5344 6.62502 13.1424L8.32555 12.0896ZM6.35736 9.51122C5.50978 8.53807 4.88942 7.73215 4.47894 7.08712L2.79162 8.16087C3.27715 8.92385 3.96878 9.81393 4.8492 10.8248L6.35736 9.51122ZM4.49277 7.1095C4.155 6.54654 3.98728 5.94065 3.98728 5.272H1.98728C1.98728 6.29934 2.25157 7.26146 2.77779 8.13849L4.49277 7.1095ZM3.98728 5.272C3.98728 4.63903 4.15958 4.09832 4.4997 3.61746L2.86687 2.46253C2.27899 3.29367 1.98728 4.24097 1.98728 5.272H3.98728ZM4.50618 3.60819C4.85962 3.0963 5.35573 2.67769 6.02908 2.36082L5.17748 0.551181C4.21884 1.00231 3.43494 1.6397 2.86038 2.47181L4.50618 3.60819ZM6.02908 2.36082C6.69491 2.04748 7.46651 1.88 8.36328 1.88V-0.120001C7.21206 -0.120001 6.14365 0.0965133 5.17748 0.551181L6.02908 2.36082ZM8.36328 1.88C9.50693 1.88 10.297 2.14731 10.8386 2.57605L12.08 1.00795C11.0855 0.220689 9.81163 -0.120001 8.36328 -0.120001V1.88ZM10.8465 2.58222C11.3772 2.99381 11.6353 3.5135 11.6353 4.24H13.6353C13.6353 2.9185 13.1094 1.80619 12.0721 1.00178L10.8465 2.58222ZM11.6353 4.24C11.6353 4.74335 11.512 5.04723 11.3533 5.24366L12.9092 6.50034C13.4226 5.86477 13.6353 5.08065 13.6353 4.24H11.6353ZM11.3533 5.24366C11.211 5.41992 11.0592 5.496 10.8113 5.496V7.496C11.6513 7.496 12.3796 7.15608 12.9092 6.50033L11.3533 5.24366ZM10.8113 5.496C10.5257 5.496 10.3333 5.40265 10.1504 5.15615L8.54418 6.34785C9.09729 7.09334 9.88083 7.496 10.8113 7.496V5.496ZM9.94048 6.55706C10.387 6.22804 10.7285 5.79926 10.9694 5.29545L9.16515 4.43254C9.0541 4.66474 8.91556 4.82796 8.75408 4.94694L9.94048 6.55706ZM10.9694 5.29545C11.2085 4.7955 11.3313 4.26435 11.3313 3.712H9.33128C9.33128 3.95965 9.27804 4.19649 9.16515 4.43254L10.9694 5.29545ZM11.3313 3.712C11.3313 2.98911 11.1091 2.30764 10.5824 1.78089L9.16817 3.19511C9.24943 3.27636 9.33128 3.41089 9.33128 3.712H11.3313ZM10.5824 1.78089C10.0498 1.24833 9.35622 1.032 8.62728 1.032V3.032C8.95435 3.032 9.09274 3.11967 9.16817 3.19511L10.5824 1.78089ZM8.62728 1.032C7.71187 1.032 6.91015 1.37846 6.29871 2.06045L7.78785 3.39554C8.00841 3.14954 8.26269 3.032 8.62728 3.032V1.032ZM6.29734 2.06198C5.70613 2.72414 5.44328 3.55116 5.44328 4.456H7.44328C7.44328 3.95283 7.58043 3.62786 7.78922 3.39402L6.29734 2.06198ZM5.44328 4.456C5.44328 5.30062 5.68971 6.09016 6.15958 6.80518L7.83099 5.70682C7.56486 5.30184 7.44328 4.89138 7.44328 4.456H5.44328ZM6.167 6.81631C6.57438 7.41852 7.18725 8.16334 7.98272 9.03999L9.46384 7.69601C8.69132 6.84466 8.15219 6.18148 7.82357 5.69569L6.167 6.81631ZM7.99109 9.0491C8.61957 9.72472 9.10966 10.2926 9.46856 10.7562L11.05 9.53183C10.6409 9.0034 10.107 8.38728 9.45547 7.6869L7.99109 9.0491ZM9.48087 10.7718C9.8146 11.1856 10.1039 11.6772 10.3435 12.255L12.191 11.489C11.8866 10.7548 11.504 10.0944 11.0377 9.51625L9.48087 10.7718ZM10.3554 12.2824C10.5812 12.7843 10.6993 13.3392 10.6993 13.96H12.6993C12.6993 13.0768 12.5293 12.2397 12.1792 11.4616L10.3554 12.2824ZM10.6993 13.96C10.6993 14.7832 10.4718 15.5121 10.0131 16.1748L11.6575 17.3132C12.3507 16.3119 12.6993 15.1848 12.6993 13.96H10.6993ZM10.0057 16.1856C9.55407 16.8566 8.92064 17.4011 8.07172 17.8118L8.94284 19.6122C10.0779 19.0629 10.9965 18.2954 11.6649 17.3024L10.0057 16.1856ZM8.06596 17.8146C7.24096 18.2204 6.30628 18.432 5.24328 18.432V20.432C6.58028 20.432 7.8216 20.1636 8.9486 19.6094L8.06596 17.8146ZM13.2548 18.424L12.5358 19.119L12.5417 19.1251L12.5477 19.1311L13.2548 18.424ZM12.7508 14.704L11.7728 14.4951L11.7702 14.5079L12.7508 14.704ZM15.3188 2.68L15.1849 1.68901L14.4878 1.78321L14.3408 2.47114L15.3188 2.68ZM18.8708 2.2L19.8488 2.40829L20.1448 1.01875L18.7369 1.20901L18.8708 2.2ZM16.1108 15.16L17.077 15.4177L17.0836 15.3931L17.0888 15.3683L16.1108 15.16ZM16.2308 16.624L15.5237 17.3311L15.5628 17.3703L15.6061 17.4049L16.2308 16.624ZM18.2948 16.24L18.9873 16.9614L18.9947 16.9543L19.0019 16.9471L18.2948 16.24ZM19.1588 14.704V13.704H18.4018L18.1963 14.4325L19.1588 14.704ZM20.1668 14.704L21.1128 15.0281L21.5664 13.704H20.1668V14.704ZM17.8868 18.232L18.4348 19.0685L18.4448 19.0618L17.8868 18.232ZM15.1268 18.144C14.586 18.144 14.2291 17.9841 13.9619 17.7169L12.5477 19.1311C13.2405 19.8239 14.1315 20.144 15.1268 20.144V18.144ZM13.9738 17.729C13.7559 17.5036 13.5588 17.0782 13.5588 16.264H11.5588C11.5588 17.3698 11.8256 18.3844 12.5358 19.119L13.9738 17.729ZM13.5588 16.264C13.5588 15.9579 13.6093 15.5105 13.7314 14.9001L11.7702 14.5079C11.6363 15.1775 11.5588 15.7701 11.5588 16.264H13.5588ZM13.7287 14.9129L16.2967 2.88886L14.3408 2.47114L11.7728 14.4951L13.7287 14.9129ZM15.4527 3.67099L19.0047 3.19099L18.7369 1.20901L15.1849 1.68901L15.4527 3.67099ZM17.8927 1.99171L15.1327 14.9517L17.0888 15.3683L19.8488 2.40829L17.8927 1.99171ZM15.1445 14.9023C15.0561 15.2339 15.0148 15.5772 15.0148 15.928H17.0148C17.0148 15.7348 17.0374 15.5661 17.077 15.4177L15.1445 14.9023ZM15.0148 15.928C15.0148 16.3663 15.109 16.9164 15.5237 17.3311L16.9379 15.9169C16.9681 15.9471 16.9893 15.9769 17.0034 16.0014C17.0171 16.0253 17.0226 16.0416 17.0238 16.0456C17.025 16.0493 17.0225 16.0425 17.0199 16.0222C17.0172 16.0018 17.0148 15.971 17.0148 15.928H15.0148ZM15.6061 17.4049C16.0318 17.7454 16.5673 17.816 16.9988 17.816V15.816C16.8792 15.816 16.8127 15.8047 16.7853 15.7979C16.7582 15.7911 16.7958 15.7954 16.8555 15.8431L15.6061 17.4049ZM16.9988 17.816C17.77 17.816 18.4398 17.487 18.9873 16.9614L17.6022 15.5186C17.3498 15.761 17.1556 15.816 16.9988 15.816V17.816ZM19.0019 16.9471C19.5396 16.4094 19.9057 15.7398 20.1212 14.9755L18.1963 14.4325C18.0599 14.9162 17.85 15.2706 17.5877 15.5329L19.0019 16.9471ZM19.1588 15.704H20.1668V13.704H19.1588V15.704ZM19.2208 14.3799C18.6583 16.0217 17.9929 16.9556 17.3288 17.4022L18.4448 19.0618C19.6366 18.2604 20.4913 16.8423 21.1128 15.0281L19.2208 14.3799ZM17.3388 17.3955C16.538 17.9201 15.8055 18.144 15.1268 18.144V20.144C16.272 20.144 17.3795 19.7599 18.4348 19.0685L17.3388 17.3955ZM19.5212 18.232L18.8319 18.9566L18.8415 18.9654L19.5212 18.232ZM19.1852 11.68L20.1362 11.9893L19.1852 11.68ZM21.2972 8.248L21.9985 8.96095L22.0043 8.95511L21.2972 8.248ZM26.8892 11.56L27.7158 12.1228L26.8892 11.56ZM24.8492 13.384L25.3163 14.2682L25.3228 14.2648L25.3292 14.2613L24.8492 13.384ZM22.1372 14.152L22.0707 13.1542L21.1976 13.2124L21.1394 14.0855L22.1372 14.152ZM22.4972 16.72L21.7702 17.4066L21.78 17.417L21.7901 17.4271L22.4972 16.72ZM26.0252 16.528L25.4855 15.6861L25.4756 15.6926L26.0252 16.528ZM28.0652 14.704V13.704H27.6205L27.3226 14.0342L28.0652 14.704ZM28.8812 14.704L29.7387 15.2185L30.6474 13.704H28.8812V14.704ZM22.3292 13L21.3463 12.8157L21.1117 14.0673L22.3832 13.9985L22.3292 13ZM24.0092 12.376L23.4325 11.559L23.421 11.5673L24.0092 12.376ZM25.3052 10.912L24.4355 10.4184L24.4304 10.4274L24.4255 10.4365L25.3052 10.912ZM23.5052 9.568L22.631 9.08232L22.6252 9.09307L23.5052 9.568ZM22.2812 18.144C21.2657 18.144 20.6188 17.8858 20.201 17.4986L18.8415 18.9654C19.7357 19.7942 20.9287 20.144 22.2812 20.144V18.144ZM20.2104 17.5074C19.8278 17.1434 19.5372 16.4903 19.5372 15.328H17.5372C17.5372 16.7897 17.9027 18.0726 18.832 18.9566L20.2104 17.5074ZM19.5372 15.328C19.5372 14.3526 19.7285 13.2426 20.1362 11.9893L18.2343 11.3707C17.778 12.7734 17.5372 14.0954 17.5372 15.328H19.5372ZM20.1362 11.9893C20.5196 10.8108 21.1392 9.80606 21.9985 8.96093L20.596 7.53507C19.5032 8.60994 18.7149 9.89322 18.2343 11.3707L20.1362 11.9893ZM22.0043 8.95511C22.775 8.18438 23.7522 7.784 25.0172 7.784V5.784C23.2742 5.784 21.7714 6.35962 20.5901 7.54089L22.0043 8.95511ZM25.0172 7.784C25.774 7.784 26.1548 7.95205 26.3397 8.11342C26.4986 8.2521 26.6572 8.51223 26.6572 9.088H28.6572C28.6572 8.12776 28.3759 7.2359 27.6548 6.60658C26.9597 5.99995 26.0205 5.784 25.0172 5.784V7.784ZM26.6572 9.088C26.6572 9.77999 26.4635 10.4084 26.0626 10.9972L27.7158 12.1228C28.3389 11.2076 28.6572 10.188 28.6572 9.088H26.6572ZM26.0626 10.9972C25.6452 11.6103 25.0873 12.1138 24.3692 12.5067L25.3292 14.2613C26.3071 13.7262 27.1092 13.0137 27.7158 12.1228L26.0626 10.9972ZM24.3821 12.4998C23.6586 12.882 22.8911 13.0995 22.0707 13.1542L22.2037 15.1498C23.3033 15.0765 24.3438 14.782 25.3163 14.2682L24.3821 12.4998ZM21.1394 14.0855C21.1078 14.5599 21.0892 14.9131 21.0892 15.112H23.0892C23.0892 14.9909 23.1026 14.7041 23.135 14.2185L21.1394 14.0855ZM21.0892 15.112C21.0892 15.935 21.2161 16.82 21.7702 17.4066L23.2242 16.0334C23.2424 16.0526 23.2023 16.0209 23.1605 15.8561C23.1194 15.6941 23.0892 15.4526 23.0892 15.112H21.0892ZM21.7901 17.4271C22.3337 17.9707 23.0929 18.128 23.8172 18.128V16.128C23.3255 16.128 23.2047 16.0133 23.2043 16.0129L21.7901 17.4271ZM23.8172 18.128C24.8394 18.128 25.7751 17.8895 26.5748 17.3634L25.4756 15.6926C25.0593 15.9665 24.5231 16.128 23.8172 16.128V18.128ZM26.5649 17.3699C27.2906 16.9047 28.0379 16.2273 28.8078 15.3738L27.3226 14.0342C26.6205 14.8127 26.0079 15.3513 25.4856 15.6861L26.5649 17.3699ZM28.0652 15.704H28.8812V13.704H28.0652V15.704ZM28.0237 14.1895C26.3637 16.9562 24.4441 18.144 22.2812 18.144V20.144C25.3663 20.144 27.8468 18.3718 29.7387 15.2185L28.0237 14.1895ZM22.3832 13.9985C23.1871 13.9551 23.9298 13.6703 24.5974 13.1847L23.421 11.5673C23.0327 11.8497 22.6553 11.9809 22.2752 12.0015L22.3832 13.9985ZM24.5859 13.193C25.2573 12.7191 25.7924 12.1137 26.1849 11.3875L24.4255 10.4365C24.178 10.8943 23.8492 11.2649 23.4325 11.559L24.5859 13.193ZM26.1749 11.4056C26.593 10.669 26.8092 9.8757 26.8092 9.04H24.8092C24.8092 9.51629 24.6895 9.97098 24.4355 10.4184L26.1749 11.4056ZM26.8092 9.04C26.8092 8.64293 26.7545 8.17746 26.513 7.78139C26.2225 7.30501 25.7404 7.056 25.2092 7.056V9.056C25.1702 9.056 25.0873 9.04704 24.992 8.99495C24.8949 8.94184 24.8352 8.8714 24.8054 8.82261C24.7797 8.78044 24.7832 8.76635 24.7918 8.80868C24.8001 8.84973 24.8092 8.92379 24.8092 9.04H26.8092ZM25.2092 7.056C24.6074 7.056 24.0951 7.32433 23.6875 7.68601C23.2872 8.04122 22.9405 8.52543 22.6311 9.08236L24.3794 10.0536C24.63 9.60257 24.8472 9.33078 25.0149 9.18199C25.1753 9.03967 25.235 9.056 25.2092 9.056V7.056ZM22.6252 9.09307C22.0259 10.2035 21.6028 11.4478 21.3463 12.8157L23.3121 13.1843C23.5356 11.9922 23.8965 10.9485 24.3852 10.0429L22.6252 9.09307ZM28.4322 18.232L27.7429 18.9566L27.7524 18.9654L28.4322 18.232ZM28.0962 11.68L29.0471 11.9893L28.0962 11.68ZM30.2082 8.248L30.9094 8.96095L30.9153 8.95511L30.2082 8.248ZM35.8002 11.56L36.6268 12.1228L35.8002 11.56ZM33.7602 13.384L34.2273 14.2682L34.2337 14.2648L34.2402 14.2613L33.7602 13.384ZM31.0482 14.152L30.9816 13.1542L30.1086 13.2124L30.0504 14.0855L31.0482 14.152ZM31.4082 16.72L30.6811 17.4066L30.691 17.417L30.701 17.4271L31.4082 16.72ZM34.9362 16.528L34.3965 15.6861L34.3865 15.6926L34.9362 16.528ZM36.9762 14.704V13.704H36.5314L36.2336 14.0342L36.9762 14.704ZM37.7922 14.704L38.6497 15.2185L39.5583 13.704H37.7922V14.704ZM31.2402 13L30.2573 12.8157L30.0226 14.0673L31.2941 13.9985L31.2402 13ZM32.9202 12.376L32.3434 11.559L32.332 11.5673L32.9202 12.376ZM34.2162 10.912L33.3465 10.4184L33.3414 10.4274L33.3365 10.4365L34.2162 10.912ZM32.4162 9.568L31.5419 9.08232L31.5361 9.09307L32.4162 9.568ZM31.1922 18.144C30.1767 18.144 29.5297 17.8858 29.1119 17.4986L27.7524 18.9654C28.6466 19.7942 29.8396 20.144 31.1922 20.144V18.144ZM29.1214 17.5074C28.7387 17.1434 28.4482 16.4903 28.4482 15.328H26.4482C26.4482 16.7897 26.8136 18.0726 27.7429 18.9566L29.1214 17.5074ZM28.4482 15.328C28.4482 14.3526 28.6394 13.2426 29.0471 11.9893L27.1452 11.3707C26.6889 12.7734 26.4482 14.0954 26.4482 15.328H28.4482ZM29.0471 11.9893C29.4305 10.8108 30.0502 9.80606 30.9094 8.96093L29.5069 7.53507C28.4141 8.60994 27.6258 9.89322 27.1452 11.3707L29.0471 11.9893ZM30.9153 8.95511C31.686 8.18438 32.6632 7.784 33.9282 7.784V5.784C32.1851 5.784 30.6823 6.35962 29.5011 7.54089L30.9153 8.95511ZM33.9282 7.784C34.6849 7.784 35.0657 7.95205 35.2506 8.11342C35.4095 8.2521 35.5682 8.51223 35.5682 9.088H37.5682C37.5682 8.12776 37.2868 7.2359 36.5657 6.60658C35.8706 5.99995 34.9314 5.784 33.9282 5.784V7.784ZM35.5682 9.088C35.5682 9.77999 35.3744 10.4084 34.9736 10.9972L36.6268 12.1228C37.2499 11.2076 37.5682 10.188 37.5682 9.088H35.5682ZM34.9736 10.9972C34.5561 11.6103 33.9983 12.1138 33.2801 12.5067L34.2402 14.2613C35.218 13.7262 36.0202 13.0137 36.6268 12.1228L34.9736 10.9972ZM33.293 12.4998C32.5695 12.882 31.8021 13.0995 30.9816 13.1542L31.1147 15.1498C32.2142 15.0765 33.2548 14.782 34.2273 14.2682L33.293 12.4998ZM30.0504 14.0855C30.0187 14.5599 30.0002 14.9131 30.0002 15.112H32.0002C32.0002 14.9909 32.0136 14.7041 32.0459 14.2185L30.0504 14.0855ZM30.0002 15.112C30.0002 15.935 30.1271 16.82 30.6811 17.4066L32.1352 16.0334C32.1534 16.0526 32.1133 16.0209 32.0714 15.8561C32.0304 15.6941 32.0002 15.4526 32.0002 15.112H30.0002ZM30.701 17.4271C31.2446 17.9707 32.0039 18.128 32.7282 18.128V16.128C32.2364 16.128 32.1157 16.0133 32.1153 16.0129L30.701 17.4271ZM32.7282 18.128C33.7503 18.128 34.6861 17.8895 35.4858 17.3634L34.3865 15.6926C33.9702 15.9665 33.434 16.128 32.7282 16.128V18.128ZM35.4758 17.3699C36.2015 16.9047 36.9488 16.2273 37.7187 15.3738L36.2336 14.0342C35.5315 14.8127 34.9188 15.3513 34.3965 15.6861L35.4758 17.3699ZM36.9762 15.704H37.7922V13.704H36.9762V15.704ZM36.9347 14.1895C35.2746 16.9562 33.355 18.144 31.1922 18.144V20.144C34.2773 20.144 36.7577 18.3718 38.6497 15.2185L36.9347 14.1895ZM31.2941 13.9985C32.0981 13.9551 32.8407 13.6703 33.5083 13.1847L32.332 11.5673C31.9436 11.8497 31.5662 11.9809 31.1862 12.0015L31.2941 13.9985ZM33.4968 13.193C34.1682 12.7191 34.7033 12.1137 35.0959 11.3875L33.3365 10.4365C33.089 10.8943 32.7601 11.2649 32.3435 11.559L33.4968 13.193ZM35.0858 11.4056C35.5039 10.669 35.7202 9.8757 35.7202 9.04H33.7202C33.7202 9.51629 33.6004 9.97098 33.3465 10.4184L35.0858 11.4056ZM35.7202 9.04C35.7202 8.64293 35.6655 8.17746 35.424 7.78139C35.1335 7.30501 34.6514 7.056 34.1202 7.056V9.056C34.0811 9.056 33.9983 9.04704 33.903 8.99495C33.8058 8.94184 33.7461 8.8714 33.7164 8.82261C33.6907 8.78044 33.6941 8.76635 33.7027 8.80868C33.711 8.84973 33.7202 8.92379 33.7202 9.04H35.7202ZM34.1202 7.056C33.5184 7.056 33.0061 7.32433 32.5984 7.68601C32.1981 8.04122 31.8514 8.52543 31.542 9.08236L33.2903 10.0536C33.5409 9.60257 33.7582 9.33078 33.9259 9.18199C34.0863 9.03967 34.1459 9.056 34.1202 9.056V7.056ZM31.5361 9.09307C30.9368 10.2035 30.5138 11.4478 30.2573 12.8157L32.223 13.1843C32.4465 11.9922 32.8075 10.9485 33.2962 10.0429L31.5361 9.09307ZM38.4951 6.112V5.112H37.685L37.5169 5.90442L38.4951 6.112ZM41.9511 6.112L42.9291 6.32064L43.1869 5.112H41.9511V6.112ZM41.5671 7.912L40.5891 7.70336L39.9702 10.6042L42.2191 8.67019L41.5671 7.912ZM46.5111 7.768L47.2574 7.10238V7.10238L46.5111 7.768ZM46.7511 14.512L47.7122 14.7883L47.7131 14.7852L46.7511 14.512ZM44.8791 17.8L45.5926 18.5007L45.5987 18.4944L44.8791 17.8ZM39.3591 18.28L40.2229 17.7761L38.92 15.5426L38.3811 18.0716L39.3591 18.28ZM38.1111 24.136L38.343 25.1087L38.9575 24.9622L39.0891 24.3444L38.1111 24.136ZM34.4871 25L33.5089 24.7924L33.1806 26.3395L34.719 25.9727L34.4871 25ZM42.5511 15.976L41.7361 15.3965L41.7318 15.4026L41.7276 15.4087L42.5511 15.976ZM43.6551 13.408L42.6822 13.1764L42.6797 13.1877L43.6551 13.408ZM41.9271 8.92L41.3624 8.09469L41.3519 8.10187L41.3416 8.10932L41.9271 8.92ZM41.1591 9.784L40.3049 9.26405L40.2159 9.41029L40.1806 9.57781L41.1591 9.784ZM39.7431 16.504L38.7646 16.2978L38.7072 16.5699L38.7986 16.8325L39.7431 16.504ZM38.4951 7.112H41.9511V5.112H38.4951V7.112ZM40.9731 5.90336L40.5891 7.70336L42.5451 8.12064L42.9291 6.32064L40.9731 5.90336ZM42.2191 8.67019C42.8346 8.14092 43.5382 7.88 44.3751 7.88V5.88C43.068 5.88 41.8996 6.30708 40.9151 7.15381L42.2191 8.67019ZM44.3751 7.88C45.0271 7.88 45.4522 8.08315 45.7648 8.43361L47.2574 7.10238C46.514 6.26885 45.5151 5.88 44.3751 5.88V7.88ZM45.7648 8.43361C46.0485 8.75169 46.3031 9.41608 46.3031 10.672H48.3031C48.3031 9.23992 48.0297 7.96831 47.2574 7.10238L45.7648 8.43361ZM46.3031 10.672C46.3031 11.8378 46.1335 13.0259 45.7891 14.2388L47.7131 14.7852C48.1046 13.4061 48.3031 12.0342 48.3031 10.672H46.3031ZM45.79 14.2357C45.4648 15.367 44.9202 16.3172 44.1595 17.1056L45.5987 18.4944C46.5979 17.4588 47.3014 16.217 47.7122 14.7883L45.79 14.2357ZM44.1656 17.0993C43.5017 17.7753 42.6136 18.144 41.3991 18.144V20.144C43.0646 20.144 44.4965 19.6167 45.5925 18.5007L44.1656 17.0993ZM41.3991 18.144C40.5261 18.144 40.2962 17.9018 40.2229 17.7761L38.4953 18.7839C39.094 19.8102 40.2241 20.144 41.3991 20.144V18.144ZM38.3811 18.0716L37.1331 23.9276L39.0891 24.3444L40.3371 18.4884L38.3811 18.0716ZM37.8792 23.1633L34.2552 24.0273L34.719 25.9727L38.343 25.1087L37.8792 23.1633ZM35.4653 25.2076L39.4733 6.31958L37.5169 5.90442L33.5089 24.7924L35.4653 25.2076ZM40.6551 18.056C41.8016 18.056 42.722 17.4907 43.3746 16.5433L41.7276 15.4087C41.3882 15.9013 41.0446 16.056 40.6551 16.056V18.056ZM43.366 16.5555C43.9655 15.7125 44.3817 14.7301 44.6305 13.6283L42.6797 13.1877C42.4805 14.0699 42.1607 14.7995 41.7361 15.3965L43.366 16.5555ZM44.6279 13.6396C44.8825 12.5703 45.0151 11.5556 45.0151 10.6H43.0151C43.0151 11.3724 42.9077 12.2297 42.6823 13.1764L44.6279 13.6396ZM45.0151 10.6C45.0151 9.86822 44.9107 9.15279 44.5717 8.58999C44.1838 7.94605 43.552 7.608 42.8151 7.608V9.608C42.8741 9.608 42.8771 9.61921 42.8559 9.60748C42.8333 9.59494 42.837 9.58629 42.8585 9.62201C42.9195 9.72321 43.0151 10.0038 43.0151 10.6H45.0151ZM42.8151 7.608C42.276 7.608 41.7865 7.80454 41.3624 8.09469L42.4918 9.74531C42.6757 9.61946 42.7782 9.608 42.8151 9.608V7.608ZM41.3416 8.10932C40.9252 8.41007 40.5838 8.80584 40.3049 9.26405L42.0133 10.3039C42.1824 10.0262 42.353 9.84593 42.5126 9.73068L41.3416 8.10932ZM40.1806 9.57781L38.7646 16.2978L40.7216 16.7102L42.1376 9.99019L40.1806 9.57781ZM38.7986 16.8325C38.9312 17.2138 39.1784 17.549 39.5493 17.7735C39.9031 17.9876 40.2944 18.056 40.6551 18.056V16.056C40.5358 16.056 40.5351 16.0324 40.5849 16.0625C40.6111 16.0783 40.6379 16.1014 40.6596 16.1292C40.6697 16.1421 40.6768 16.1536 40.6814 16.1622C40.686 16.1708 40.6876 16.1756 40.6876 16.1755L38.7986 16.8325ZM49.3497 24.256L50.0022 23.4982L50.0004 23.4967L49.3497 24.256ZM49.0377 20.68L48.2513 20.0622L49.0377 20.68ZM50.4057 19.624L49.9899 18.7145L50.4057 19.624ZM52.6617 18.808L52.9535 19.7645L53.5082 19.5952L53.6368 19.0296L52.6617 18.808ZM52.9017 17.752L53.8768 17.9736L52.1507 17.0917L52.9017 17.752ZM48.1017 18.424L47.3827 19.119L47.3886 19.1251L47.3946 19.1311L48.1017 18.424ZM47.5977 14.704L46.6193 14.4967L46.6171 14.5079L47.5977 14.704ZM49.2297 7V6H48.4193L48.2514 6.79276L49.2297 7ZM52.6857 7L53.664 7.20717L53.9196 6H52.6857V7ZM50.9577 15.16L51.9278 15.4025L51.9322 15.3849L51.936 15.3672L50.9577 15.16ZM52.7577 16.264L53.5123 16.9202L53.5192 16.9123L53.5259 16.9042L52.7577 16.264ZM53.5257 14.704L54.4854 14.9849L54.4961 14.9484L54.5039 14.9112L53.5257 14.704ZM55.1577 7V6H54.3473L54.1794 6.79276L55.1577 7ZM58.6377 7L59.6162 7.20584L59.8699 6H58.6377V7ZM55.7097 20.92L54.7311 20.7142L54.7307 20.716L55.7097 20.92ZM54.0057 24.112L53.4184 23.3025L53.4108 23.3082L54.0057 24.112ZM51.6057 22.408L50.8582 21.7436L50.8494 21.7536L50.8407 21.7639L51.6057 22.408ZM52.2057 20.992L53.1824 21.2064L53.1841 21.1989L53.1856 21.1913L52.2057 20.992ZM52.4937 19.576L53.4736 19.7753L53.8206 18.0692L52.1721 18.6291L52.4937 19.576ZM50.5257 20.584L49.8881 19.8136L50.5257 20.584ZM50.1177 22.6L50.7934 21.8628L50.776 21.8469L50.7578 21.8318L50.1177 22.6ZM51.3417 24C50.832 24 50.3989 23.8398 50.0022 23.4982L48.6971 25.0138C49.4525 25.6642 50.3473 26 51.3417 26V24ZM50.0004 23.4967C49.667 23.211 49.5097 22.8746 49.5097 22.408H47.5097C47.5097 23.4454 47.9123 24.341 48.6989 25.0153L50.0004 23.4967ZM49.5097 22.408C49.5097 21.874 49.6405 21.5314 49.824 21.2978L48.2513 20.0622C47.7308 20.7246 47.5097 21.534 47.5097 22.408H49.5097ZM49.824 21.2978C50.0696 20.9851 50.3944 20.7287 50.8214 20.5335L49.9899 18.7145C49.2969 19.0313 48.7097 19.4789 48.2513 20.0622L49.824 21.2978ZM50.8214 20.5335C51.3247 20.3034 52.0298 20.0463 52.9535 19.7645L52.3699 17.8515C51.4055 18.1457 50.6067 18.4326 49.9899 18.7145L50.8214 20.5335ZM53.6368 19.0296L53.8768 17.9736L51.9265 17.5304L51.6865 18.5864L53.6368 19.0296ZM52.1507 17.0917C51.5058 17.8251 50.7949 18.144 49.9737 18.144V20.144C51.4244 20.144 52.6655 19.5349 53.6526 18.4123L52.1507 17.0917ZM49.9737 18.144C49.4329 18.144 49.076 17.9841 48.8088 17.7169L47.3946 19.1311C48.0873 19.8239 48.9784 20.144 49.9737 20.144V18.144ZM48.8206 17.729C48.6028 17.5036 48.4057 17.0782 48.4057 16.264H46.4057C46.4057 17.3698 46.6725 18.3844 47.3827 19.119L48.8206 17.729ZM48.4057 16.264C48.4057 15.9579 48.4562 15.5105 48.5782 14.9001L46.6171 14.5079C46.4832 15.1775 46.4057 15.7701 46.4057 16.264H48.4057ZM48.5759 14.9112L50.2079 7.20724L48.2514 6.79276L46.6194 14.4968L48.5759 14.9112ZM49.2297 8H52.6857V6H49.2297V8ZM51.7074 6.79283L49.9794 14.9528L51.936 15.3672L53.664 7.20717L51.7074 6.79283ZM49.9875 14.9175C49.9187 15.1927 49.8857 15.4744 49.8857 15.76H51.8857C51.8857 15.6296 51.9006 15.5113 51.9278 15.4025L49.9875 14.9175ZM49.8857 15.76C49.8857 16.1944 49.954 16.6968 50.2394 17.1153C50.5716 17.6026 51.0839 17.816 51.6057 17.816V15.816C51.6081 15.816 51.6587 15.8168 51.7299 15.8516C51.8056 15.8887 51.8605 15.9427 51.8919 15.9887C51.9188 16.0281 51.9152 16.0419 51.9058 16.0004C51.8964 15.959 51.8857 15.8824 51.8857 15.76H49.8857ZM51.6057 17.816C52.3708 17.816 53.0213 17.4848 53.5123 16.9202L52.0031 15.6078C51.854 15.7792 51.7365 15.816 51.6057 15.816V17.816ZM53.5259 16.9042C53.9596 16.3837 54.2682 15.7271 54.4854 14.9849L52.5659 14.4231C52.3991 14.9929 52.1957 15.3763 51.9894 15.6238L53.5259 16.9042ZM54.5039 14.9112L56.1359 7.20724L54.1794 6.79276L52.5474 14.4968L54.5039 14.9112ZM55.1577 8H58.6377V6H55.1577V8ZM57.6591 6.79416L54.7311 20.7142L56.6882 21.1258L59.6162 7.20584L57.6591 6.79416ZM54.7307 20.716C54.4343 22.1386 53.9466 22.9194 53.4184 23.3026L54.5929 24.9214C55.6967 24.1206 56.345 22.7734 56.6886 21.124L54.7307 20.716ZM53.4108 23.3082C52.7793 23.7755 52.099 24 51.3417 24V26C52.5363 26 53.632 25.6325 54.6005 24.9158L53.4108 23.3082ZM50.7897 23.864C51.4729 23.864 52.0003 23.4918 52.3706 23.0521L50.8407 21.7639C50.7701 21.8478 50.7278 21.8737 50.7218 21.8771C50.7199 21.8782 50.7264 21.8743 50.7407 21.8704C50.7555 21.8664 50.7725 21.864 50.7897 21.864V23.864ZM52.3531 23.0724C52.7786 22.5937 53.0254 21.9218 53.1824 21.2064L51.2289 20.7776C51.0979 21.3742 50.9447 21.6463 50.8582 21.7436L52.3531 23.0724ZM53.1856 21.1913L53.4736 19.7753L51.5137 19.3767L51.2257 20.7927L53.1856 21.1913ZM52.1721 18.6291C51.2596 18.939 50.4797 19.324 49.8881 19.8136L51.1632 21.3544C51.4996 21.076 52.0317 20.789 52.8152 20.5229L52.1721 18.6291ZM49.8881 19.8136C49.192 20.3897 48.8297 21.1693 48.8297 22.072H50.8297C50.8297 21.7587 50.9313 21.5463 51.1632 21.3544L49.8881 19.8136ZM48.8297 22.072C48.8297 22.6451 49.1313 23.0798 49.4775 23.3682L50.7578 21.8318C50.7356 21.8132 50.7544 21.823 50.7796 21.8691C50.808 21.9213 50.8297 21.9932 50.8297 22.072H48.8297ZM49.4419 23.3372C49.8148 23.679 50.2787 23.864 50.7897 23.864V21.864C50.7832 21.864 50.7817 21.8635 50.784 21.8639C50.7864 21.8643 50.7906 21.8654 50.7953 21.8672C50.8 21.8691 50.8029 21.8708 50.8035 21.8712C50.8039 21.8715 50.8005 21.8693 50.7934 21.8628L49.4419 23.3372Z" fill="#6161C9"/>
</svg>
